<svg class="clipboard" xmlns="http://www.w3.org/2000/svg" viewBox="0 0 127 185"><defs><style>.cls-1{fill:#fff;}</style></defs><title>trouble_3</title><g id="Layer_2" data-name="Layer 2"><g id="Layer_1-2" data-name="Layer 1"><path class="cls-1" d="M120,22.62a2,2,0,0,1,2,2V178a2,2,0,0,1-2,2H7a2,2,0,0,1-2-2V24.62a2,2,0,0,1,2-2H120m0-5H7a7,7,0,0,0-7,7V178a7,7,0,0,0,7,7H120a7,7,0,0,0,7-7V24.62a7,7,0,0,0-7-7Z"/><path class="cls-1" d="M107.23,36.32v130H19.77v-130h87.47m5-5H14.77v140h97.47v-140Z"/><path class="cls-1" d="M35.46,34.24V22.11c0-4.4,5.29-8,11.8-8h4l-.54-1.37a6.54,6.54,0,0,1-.48-2.4C50.22,5.2,56.4,1,64,1s13.77,4.2,13.77,9.36a6.53,6.53,0,0,1-.48,2.4l-.54,1.37h3c6.51,0,11.8,3.58,11.8,8V34.24Z"/><path class="cls-1" d="M64,2c6.92,0,12.77,3.83,12.77,8.36a5.54,5.54,0,0,1-.41,2l-1.08,2.73h4.47c5.85,0,10.8,3.2,10.8,7V33.24H36.46V22.11c0-3.78,4.95-7,10.8-7h5.45l-1.08-2.73a5.54,5.54,0,0,1-.41-2C51.22,5.83,57.07,2,64,2m0-2C55.84,0,49.22,4.64,49.22,10.36a7.51,7.51,0,0,0,.55,2.76H47.26c-7.07,0-12.8,4-12.8,9V35.24H92.54V22.11c0-5-5.73-9-12.8-9H78.21a7.51,7.51,0,0,0,.55-2.76C78.76,4.64,72.15,0,64,0Z"/><path class="cls-1" d="M64,10.81a4.16,4.16,0,0,1,3.91,4.36,3.93,3.93,0,1,1-7.81,0A4.16,4.16,0,0,1,64,10.81m0-2a6.15,6.15,0,0,0-5.91,6.36,5.92,5.92,0,1,0,11.81,0A6.15,6.15,0,0,0,64,8.81Z"/><path class="cls-1" d="M83.4,75.37,55.62,107l-13-13.68-9.14,10.15,22.15,23.83L92.54,85.51Z"/></g></g></svg>