<svg id="Layer_1" data-name="Layer 1" xmlns="http://www.w3.org/2000/svg" viewBox="0 0 75 56.5"><title>softwarets</title><path d="M565.88,313.75a2,2,0,0,1,2,2v41h-67a2,2,0,0,1-2-2v-41h67m0-3h-70v44a5,5,0,0,0,5,5h70v-44a5,5,0,0,0-5-5Z" transform="translate(-495.88 -310.75)" style="fill:#fff"/><path d="M540.38,320.28a1,1,0,0,1,1,1v27.94a1,1,0,0,1-1,1h-14a1,1,0,0,1-1-1V321.28a1,1,0,0,1,1-1h14m0-3h-14a4,4,0,0,0-4,4v27.94a4,4,0,0,0,4,4h14a4,4,0,0,0,4-4V321.28a4,4,0,0,0-4-4Z" transform="translate(-495.88 -310.75)" style="fill:#fff"/><rect x="31" y="14.16" width="13" height="2.18" style="fill:#fff"/><polygon points="44 14.16 31 14.16 31 16.34 44 16.34 44 14.16 44 14.16" style="fill:#fff"/><rect x="31" y="17.43" width="13" height="2.18" style="fill:#fff"/><polygon points="44 17.43 31 17.43 31 19.6 44 19.6 44 17.43 44 17.43" style="fill:#fff"/><path d="M544.5,364.12c0-.9-1.8-1.63-4-1.63h-14c-2.2,0-4,.74-4,1.63s1.8,1.63,4,1.63h14C542.7,365.75,544.5,365,544.5,364.12Z" transform="translate(-495.88 -310.75)" style="fill:#fff"/><path d="M544.5,364.12c0-.9-1.8-1.63-4-1.63h-14c-2.2,0-4,.74-4,1.63s1.8,1.63,4,1.63h14C542.7,365.75,544.5,365,544.5,364.12Z" transform="translate(-495.88 -310.75)" style="fill:none;stroke:#fff;stroke-miterlimit:10;stroke-width:3px"/></svg>