<svg id="Layer_1" data-name="Layer 1" xmlns="http://www.w3.org/2000/svg" viewBox="0 0 214.38 136.47"><title>os</title><path d="M256.63,355.5v23h147v-23ZM330.38,370a3.25,3.25,0,1,1,3.25-3.25A3.25,3.25,0,0,1,330.38,370Z" transform="translate(-254.13 -267.03)" style="fill:#fff;stroke:#fff;stroke-miterlimit:10;stroke-width:2px"/><rect x="54" y="112.47" width="44" height="13" style="fill:#fff;stroke:#fff;stroke-miterlimit:10;stroke-width:5px"/><rect x="38.5" y="118.47" width="75" height="14" style="fill:#fff;stroke:#fff;stroke-miterlimit:10;stroke-width:5px"/><path d="M420.5,269.5v134h48v-134Zm41,41.5h-33v-8.87h33Zm0-16.63h-33V285.5h33Z" transform="translate(-254.13 -267.03)" style="fill:#fff"/><path d="M403.63,378.5l-147-1v-103a5,5,0,0,1,5-5l137,.93a5,5,0,0,1,5,5Z" transform="translate(-254.13 -267.03)" style="fill:none;stroke:#fff;stroke-miterlimit:10;stroke-width:5px"/></svg>