<svg class="lock" id="Layer_1" data-name="Layer 1" xmlns="http://www.w3.org/2000/svg" viewBox="0 0 85 126"><title>lock</title><path d="M40,5h5A20,20,0,0,1,65,25V51a0,0,0,0,1,0,0H20a0,0,0,0,1,0,0V25A20,20,0,0,1,40,5Z" style="fill:none;stroke:#fff;stroke-miterlimit:10;stroke-width:10px"/><path d="M523.5,410V339.5A9.51,9.51,0,0,1,533,330h70.5v70.5A9.51,9.51,0,0,1,594,410Zm26.86-15.5h26.29l-5.85-25.35a12.5,12.5,0,1,0-14.58,0Z" transform="translate(-521 -286.5)" style="fill:#fff"/><path d="M601,332.5v68a7,7,0,0,1-7,7H526v-68a7,7,0,0,1,7-7h68m-47.58,37.61-4.79,20.77L547.21,397h32.57l-1.41-6.12-4.79-20.77a15,15,0,1,0-20.16,0M606,327.5H533a12,12,0,0,0-12,12v73h73a12,12,0,0,0,12-12v-73ZM553.5,392l5.55-24.05a10,10,0,1,1,8.9,0L573.5,392Z" transform="translate(-521 -286.5)" style="fill:#fff"/></svg>